<mxfile host="app.diagrams.net" modified="2023-12-06T22:15:18.286Z" agent="Mozilla/5.0 (Windows NT 10.0; Win64; x64) AppleWebKit/537.36 (KHTML, like Gecko) Chrome/119.0.0.0 Safari/537.36" etag="uy7LeV_fZ9tjIq_i6lMt" version="22.1.5" type="device">
  <diagram id="FiXUJnzLlhFP-MB1lQGa" name="Page-1">
    <mxGraphModel dx="882" dy="578" grid="1" gridSize="10" guides="1" tooltips="1" connect="1" arrows="1" fold="1" page="1" pageScale="1" pageWidth="850" pageHeight="1100" math="0" shadow="0">
      <root>
        <mxCell id="0" />
        <mxCell id="1" parent="0" />
        <mxCell id="DZDfxgOg0tuGT-cDEo6J-1" value="Nudity probability" style="rounded=1;whiteSpace=wrap;html=1;" vertex="1" parent="1">
          <mxGeometry x="240" y="280" width="120" height="60" as="geometry" />
        </mxCell>
        <mxCell id="DZDfxgOg0tuGT-cDEo6J-2" style="edgeStyle=orthogonalEdgeStyle;rounded=0;orthogonalLoop=1;jettySize=auto;html=1;exitX=0.5;exitY=1;exitDx=0;exitDy=0;entryX=0.5;entryY=0;entryDx=0;entryDy=0;" edge="1" parent="1" source="DZDfxgOg0tuGT-cDEo6J-3" target="DZDfxgOg0tuGT-cDEo6J-1">
          <mxGeometry relative="1" as="geometry" />
        </mxCell>
        <mxCell id="DZDfxgOg0tuGT-cDEo6J-8" style="edgeStyle=orthogonalEdgeStyle;rounded=0;orthogonalLoop=1;jettySize=auto;html=1;exitX=0;exitY=0.5;exitDx=0;exitDy=0;entryX=0.5;entryY=0;entryDx=0;entryDy=0;" edge="1" parent="1" source="DZDfxgOg0tuGT-cDEo6J-3" target="DZDfxgOg0tuGT-cDEo6J-6">
          <mxGeometry relative="1" as="geometry" />
        </mxCell>
        <mxCell id="DZDfxgOg0tuGT-cDEo6J-9" style="edgeStyle=orthogonalEdgeStyle;rounded=0;orthogonalLoop=1;jettySize=auto;html=1;exitX=1;exitY=0.5;exitDx=0;exitDy=0;entryX=0.5;entryY=0;entryDx=0;entryDy=0;" edge="1" parent="1" source="DZDfxgOg0tuGT-cDEo6J-3" target="DZDfxgOg0tuGT-cDEo6J-7">
          <mxGeometry relative="1" as="geometry" />
        </mxCell>
        <mxCell id="DZDfxgOg0tuGT-cDEo6J-3" value="Model" style="rounded=1;whiteSpace=wrap;html=1;" vertex="1" parent="1">
          <mxGeometry x="240" y="160" width="120" height="60" as="geometry" />
        </mxCell>
        <mxCell id="DZDfxgOg0tuGT-cDEo6J-4" style="edgeStyle=orthogonalEdgeStyle;rounded=0;orthogonalLoop=1;jettySize=auto;html=1;exitX=0.5;exitY=1;exitDx=0;exitDy=0;entryX=0.5;entryY=0;entryDx=0;entryDy=0;" edge="1" parent="1" source="DZDfxgOg0tuGT-cDEo6J-5" target="DZDfxgOg0tuGT-cDEo6J-3">
          <mxGeometry relative="1" as="geometry" />
        </mxCell>
        <mxCell id="DZDfxgOg0tuGT-cDEo6J-5" value="Fused features" style="rounded=1;whiteSpace=wrap;html=1;" vertex="1" parent="1">
          <mxGeometry x="80" y="40" width="440" height="40" as="geometry" />
        </mxCell>
        <mxCell id="DZDfxgOg0tuGT-cDEo6J-6" value="Violence probability" style="rounded=1;whiteSpace=wrap;html=1;" vertex="1" parent="1">
          <mxGeometry x="80" y="280" width="120" height="60" as="geometry" />
        </mxCell>
        <mxCell id="DZDfxgOg0tuGT-cDEo6J-7" value="Hate probability" style="rounded=1;whiteSpace=wrap;html=1;" vertex="1" parent="1">
          <mxGeometry x="400" y="280" width="120" height="60" as="geometry" />
        </mxCell>
      </root>
    </mxGraphModel>
  </diagram>
</mxfile>
